<?xml version="1.0" encoding="UTF-8"?>
<svg id="Layer_1" xmlns="http://www.w3.org/2000/svg" version="1.1" viewBox="0 0 1200 628">
  <!-- Generator: Adobe Illustrator 30.2.0, SVG Export Plug-In . SVG Version: 2.1.1 Build 105)  -->
  <defs>
    <style>
      .st0 {
        fill: #d1ac49;
      }
    </style>
  </defs>
  <g>
    <path class="st0" d="M347.39,518.66v-86.05h-6.23c-14.85,0-21.21,3.58-29.17,20.68h-1.06l4.77-23.6c2.65.53,8.09.8,13.39.8h50.78c5.3,0,10.74-.26,13.39-.8l4.77,23.6h-1.06c-7.95-17.1-14.45-20.68-29.17-20.68h-6.23v86.05c0,5.44,1.86,6.76,10.61,7.29v1.06h-35.4v-1.06c8.75-.53,10.61-1.86,10.61-7.29Z"/>
    <g>
      <path class="st0" d="M561.24,502.88c-9.94,17.5-17.77,22.01-31.16,22.01h-13.13c-4.24,0-6.5-1.86-6.5-5.97v-39.64h14.98c12.2,0,15.51,5.97,17.9,17.63h1.19v-37.12h-1.19c-2.39,11-5.7,17.1-17.9,17.1h-14.98v-44.28h15.78c15.51,0,22.27,4.24,29.83,20.68h1.06l-4.38-22.81h-67.09v1.06c8.75.53,10.61,1.86,10.61,7.29v79.82c0,5.35-1.8,7.47-10.23,7.26-5.4-.13-10.53-5.43-19.44-19.33l-19.36-29.43c11.14-2.78,24.26-9.02,24.26-23.6s-12.73-23.07-37.26-23.07h-34.47v1.06c8.88.53,10.61,1.86,10.61,7.29v79.82c0,5.44-1.72,6.76-10.61,7.29v1.06h37.12v-1.06c-10.47-.53-12.33-1.86-12.33-7.29v-39.38h5.7c2.78,0,3.98.53,6.76,5.3l16.57,27.7c7.43,12.86,12.86,14.73,21.61,14.73h79.92l7.29-24.13h-1.19ZM432.13,477.29h-7.56v-44.68h6.1c16.97,0,26.12,8.22,26.12,23.33,0,13.26-10.08,21.35-24.66,21.35Z"/>
      <path class="st0" d="M539.49,405.3c1.19-.93,2.12-2.65,2.12-4.64,0-3.18-2.65-5.83-5.83-5.83-2.78,0-4.64,1.72-5.7,3.98-1.19,2.25-7.29,15.65-10.74,22.01l.79.66c5.7-5.3,16.44-13.79,19.36-16.17Z"/>
    </g>
    <path class="st0" d="M559.68,431.55v-1.06h37.39v1.06c-10.74.66-10.74,3.58-8.22,10.21l25.06,66.42,22.54-59.66c4.24-10.74,2.52-16.17-11.27-16.97v-1.06h31.69v1.06c-8.09.8-12.33,4.77-17.37,17.77l-30.23,79.02h-2.52l-30.76-80.35c-5.04-12.99-7.69-15.64-16.31-16.44Z"/>
    <path class="st0" d="M672.4,518.66v-79.82c0-5.44-1.86-6.76-11.27-7.29v-1.06h36.59v1.06c-9.41.53-11.27,1.86-11.27,7.29v79.82c0,5.44,1.86,6.76,11.27,7.29v1.06h-36.59v-1.06c9.41-.53,11.27-1.86,11.27-7.29Z"/>
    <path class="st0" d="M738.4,518.66v-86.05h-6.23c-14.85,0-21.21,3.58-29.17,20.68h-1.06l4.77-23.6c2.65.53,8.09.8,13.39.8h50.78c5.3,0,10.74-.26,13.39-.8l4.77,23.6h-1.06c-7.95-17.1-14.45-20.68-29.17-20.68h-6.23v86.05c0,5.44,1.86,6.76,10.61,7.29v1.06h-35.4v-1.06c8.75-.53,10.61-1.86,10.61-7.29Z"/>
    <path class="st0" d="M790.3,479.81c0-30.23,22.27-50.65,50.12-50.65s48.66,19.49,48.66,48.53-22.54,50.65-50.51,50.65-48.26-19.49-48.26-48.53ZM841.21,525.95c18.16,0,31.69-17.24,31.69-43.75s-13.79-50.65-35.27-50.65c-17.77,0-31.16,17.37-31.16,43.75s13.79,50.65,34.74,50.65Z"/>
  </g>
  <path class="st0" d="M538.69,283.96c-.01,1.65.06,40.75,35.32,61.54,11.47,6.76,20.24,11.93,26.88,15.85v-103.16h-62.21v25.76ZM545.88,265.4h47.82v62.49l-6.9-4.07c-22.37-13.19-22.93-37.95-22.94-39.31v-.82s0-.96,0-.96h13.03v16.02h6.92v-22.94h-33.93l6.78,8.86s0,.03,0,.04h-6.78l8.01,9.38s0,.03,0,.05h-5.93l8.4,8.4c3.43,9.2,10.04,19.98,22.76,27.48,3.81,2.25,7.32,4.32,10.56,6.23v12.53l-16.04-9.46c-31.73-18.71-31.8-53.8-31.78-55.35v-18.57ZM683,284.08v-25.87h-61.99v103.02c6.62-3.9,15.32-9.03,26.66-15.72,35.26-20.79,35.34-59.89,35.33-61.43ZM644.02,339.31c-5.98,3.53-11.22,6.62-15.81,9.32v-12.53c3.17-1.87,6.6-3.89,10.33-6.09,12.7-7.49,19.3-18.25,22.74-27.43l8.45-8.45h-5.96l8.05-9.43h-6.81l6.81-8.9h-33.96v22.94h6.92v-16.02h13.03v1.78c0,1.37-.56,26.12-22.93,39.31l-6.67,3.94v-62.36h47.6v18.74c.01,1.48-.07,36.48-31.79,55.18ZM566.2,197.74v3.79h-6.41v7.19h20.02v-7.19h-6.41v-3.79c5.76-1.58,10.01-6.85,10.01-13.11v-9.06h-27.21v9.06c0,6.26,4.25,11.53,10.01,13.11ZM569.79,192.04c-4.09,0-7.41-3.33-7.41-7.41v-2.87h14.83v2.87c0,4.09-3.33,7.41-7.41,7.41ZM652,175.32l16.85,13.04-4.4,5.69-12.45-9.64-12.45,9.63-4.4-5.69,16.85-13.04ZM652,188.25l16.85,13.04-4.4,5.69-12.45-9.64-12.45,9.63-4.4-5.69,16.85-13.04ZM617.87,147.71c0,3.88-3.14,7.02-7.02,7.02s-7.02-3.14-7.02-7.02,3.14-7.02,7.02-7.02c1.34,0,2.58.39,3.64,1.04-.75.12-1.32.76-1.32,1.53,0,.86.7,1.56,1.56,1.56s1.53-.67,1.55-1.51c.98,1.21,1.59,2.72,1.59,4.4ZM579.05,111.19l12.5,12.5-5.09,5.09-12.5-12.5,5.09-5.09ZM656.81,361c-17.58,10.37-28.83,16.99-35.8,21.09v-8.35c7.05-4.15,17.34-10.21,32.14-18.94,17.09-10.08,29.11-24.97,35.73-44.27,5.04-14.7,4.9-26.58,4.9-26.7v-.06s0-.08,0-.08v-43.07h-165.88v43.22c0,.1-.14,11.99,4.9,26.68,6.62,19.3,18.64,34.2,35.73,44.27,14.97,8.83,25.32,14.93,32.36,19.09v8.35c-6.94-4.09-18.22-10.75-36.02-21.24-45.27-26.69-44.17-77.31-44.17-77.31v-139.58h66.57c1.75-11.45,11.63-20.26,23.56-20.26s21.82,8.81,23.57,20.26h66.57v139.58s1.1,50.62-44.17,77.31ZM628.2,213.93h47.6v-10.44s0-11.89,0-11.89v-22.32h-47.6v44.65ZM594.17,147.71c0,9.2,7.48,16.67,16.67,16.67s16.67-7.48,16.67-16.67-7.48-16.67-16.67-16.67-16.67,7.48-16.67,16.67ZM693.78,233.42v-82.13h-59.37c-.61,4.01-2.21,7.69-4.56,10.79h53.15v29.52s0,11.89,0,11.89v17.63s-61.99,0-61.99,0v-51.85c-3.09,1.46-6.53,2.31-10.17,2.31s-6.91-.8-9.94-2.2v51.74h-62.21v-59.03h53.15c-2.35-3.1-3.95-6.78-4.56-10.79h-59.37v82.13h165.88ZM545.88,169.28v44.65s47.82,0,47.82,0v-44.65h-47.82ZM606.88,99.66v17.68h7.19v-17.68h-7.19ZM641.91,111.19l-12.5,12.5,5.09,5.09,12.5-12.5-5.09-5.09Z"/>
</svg>